<svg width="114" height="24" viewBox="0 0 114 24" fill="none" xmlns="http://www.w3.org/2000/svg">
<path d="M9.07031 19.293C13.6289 19.293 16.9219 16.3984 16.9453 12.1797H12.1875C12.0352 14.1367 10.793 15.3906 9.08203 15.3906C7.01953 15.3906 5.74219 13.5859 5.74219 10.5273C5.74219 7.50391 7.03125 5.69922 9.07031 5.69922C10.793 5.69922 12.0469 6.97656 12.1641 8.89844H16.9219C16.9102 4.70312 13.5352 1.79688 9.07031 1.79688C3.90234 1.79688 0.679688 4.96094 0.679688 10.5391C0.679688 16.1172 3.89062 19.293 9.07031 19.293Z" fill="white"/>
<path d="M22.5642 19.1875C24.0642 19.1875 25.6345 18.5312 26.3142 17.2656H26.408V19H31.0955V10.1523C31.0955 7.52734 28.6931 5.73438 25.1072 5.73438C21.3337 5.73438 18.99 7.48047 18.8728 10.2461H23.1619C23.2322 9.58984 23.865 9.05078 24.8494 9.05078C25.7517 9.05078 26.408 9.51953 26.408 10.3867V11.0195L23.572 11.1953C20.115 11.4062 18.2048 12.7539 18.2048 15.2383C18.2048 17.5703 20.2087 19.1875 22.5642 19.1875ZM24.3572 15.9766C23.5134 15.9766 22.9392 15.5664 22.9392 14.8633C22.9392 14.2305 23.4548 13.7969 24.3689 13.7266L26.408 13.5859V14.4297C26.408 15.3789 25.4236 15.9766 24.3572 15.9766Z" fill="white"/>
<path d="M33.1519 19H37.9566V11.4883C37.9566 10.3633 38.5425 9.66016 39.5152 9.66016C40.5464 9.66016 41.0737 10.2812 41.0737 11.5117V19H45.6323V11.4883C45.6323 10.3516 46.2066 9.66016 47.1792 9.66016C48.2222 9.66016 48.7495 10.2695 48.7495 11.5V19H53.5542V10.2578C53.5542 7.62109 51.8198 5.80469 49.3003 5.80469C47.3316 5.80469 45.7612 6.94141 45.3277 8.65234H45.2339C44.9175 6.83594 43.605 5.80469 41.6362 5.80469C39.8667 5.80469 38.4136 6.92969 37.9331 8.67578H37.8394V6.0625H33.1519V19Z" fill="white"/>
<path d="M64.3177 5.875C62.4544 5.875 61.0833 6.8125 60.4622 8.39453H60.3802V6.0625H55.5638V23.1367H60.3684V16.7617H60.4622C61.0598 18.2734 62.4661 19.1875 64.3763 19.1875C67.5872 19.1875 69.3802 16.7969 69.3802 12.5312C69.3802 8.25391 67.5755 5.875 64.3177 5.875ZM62.4075 15.4844C61.1419 15.4844 60.3567 14.3594 60.345 12.543C60.3567 10.7383 61.1536 9.57812 62.4075 9.57812C63.6614 9.57812 64.4583 10.7383 64.4583 12.5312C64.4583 14.3359 63.6731 15.4844 62.4075 15.4844Z" fill="white"/>
<path d="M73.4873 4.83203C74.7647 4.83203 75.7725 3.8125 75.7725 2.59375C75.7725 1.375 74.7647 0.355469 73.4873 0.355469C72.21 0.355469 71.2022 1.375 71.2022 2.59375C71.2022 3.8125 72.21 4.83203 73.4873 4.83203ZM71.1084 19H75.9131V6.0625H71.1084V19Z" fill="white"/>
<path d="M77.9578 19H82.7625V11.7695C82.7625 10.5625 83.4539 9.68359 84.5906 9.68359C85.7977 9.68359 86.407 10.4805 86.407 11.7812V19H91.2117V10.7148C91.2117 7.60938 89.618 5.80469 86.7117 5.80469C84.743 5.80469 83.3953 6.78906 82.7391 8.60547H82.6453V6.0625H77.9578V19Z" fill="white"/>
<path d="M99.6548 23.875C103.815 23.875 106.686 21.9766 106.686 18.8945V6.0625H101.881V8.39453H101.788C101.284 6.94141 99.8775 5.875 97.9908 5.875C94.7681 5.875 92.8697 8.33594 92.8697 12.4961C92.8697 16.5508 94.897 18.8359 97.9205 18.8359C99.8541 18.8359 101.366 17.8867 101.788 16.5273H101.881V19.0117C101.881 20.1016 101.19 20.8398 99.7603 20.8398C98.6822 20.8398 97.9205 20.3945 97.7798 19.7734H93.1627C93.3619 22.1758 95.7291 23.875 99.6548 23.875ZM99.8423 15.3672C98.5416 15.3672 97.7916 14.3945 97.7916 12.5312C97.7916 10.7031 98.5533 9.57812 99.8423 9.57812C101.131 9.57812 101.905 10.7031 101.905 12.543C101.905 14.4062 101.143 15.3672 99.8423 15.3672Z" fill="white"/>
<path d="M111.461 19.1641C112.809 19.1641 113.899 18.0742 113.899 16.7266C113.899 15.3789 112.809 14.2891 111.461 14.2891C110.114 14.2891 109.024 15.3789 109.024 16.7266C109.024 18.0742 110.114 19.1641 111.461 19.1641Z" fill="white"/>
</svg>
